# xmcd
#
# Track frame offsets:
#	150
#	28144
#	52339
#	71789
#	87623
#	104319
#	120993
#	141864
#	155464
#	175263
#	188183
#	206648
#	224404
#	237981
#	258854
#	281321
#
# Disc length: 4212
#
# Revision: 1
# Processed by: cddbd v1.5.1PL0 Copyright (c) Steve Scherf et al.
# Submitted via: EasyCDDAExtractor 8.0.2.1
# Normalized: r0:DSETVAR1
#
DISCID=f3107210
DTITLE=Various Artist - The Mix Vol2 [CD2)
DYEAR=2004
DGENRE=Trance
TTITLE0=Motorcycle - As The Rush Comes
TTITLE1=Blank and Jones, Claudia Brücken - Unknown Treasure
TTITLE2=Holden and Thompson - Nothing
TTITLE3=Cultivate - Broken Pieces
TTITLE4=Liquid Love meets Ernesto vs. Bastian - Being Single
TTITLE5=Rapid Eye - Stealing Beauty
TTITLE6=Chicane - Love On The Run
TTITLE7=Rusch and Murray - Epic
TTITLE8=Goldenscan - Of Our Times
TTITLE9=Blank and Jones, Elles - Flaming June
TTITLE10=Terry Bones vs Fred Baker pres. Water Planet - Return To Innocence
TTITLE11=Cor Fijneman feat. Jan Johnston - Venus (Meant To Be My Lover)
TTITLE12=Project Medusa vs. Exor - Eclipse
TTITLE13=Insigma - Avalon
TTITLE14=Mr.Sam vs. Tim Coltrane pres. The Tribute - One More Day
TTITLE15=Wolfsheim - Wundervoll
EXTD=
EXTT0=
EXTT1=
EXTT2=
EXTT3=
EXTT4=
EXTT5=
EXTT6=
EXTT7=
EXTT8=
EXTT9=
EXTT10=
EXTT11=
EXTT12=
EXTT13=
EXTT14=
EXTT15=
PLAYORDER=
